<?xml version="1.0" standalone="no"?>
<!DOCTYPE svg PUBLIC "-//W3C//DTD SVG 20010904//EN"
 "http://www.w3.org/TR/2001/REC-SVG-20010904/DTD/svg10.dtd">
<svg version="1.0" xmlns="http://www.w3.org/2000/svg"
 width="1024.000000pt" height="1024.000000pt" viewBox="0 0 1024.000000 1024.000000"
 preserveAspectRatio="xMidYMid meet">

<g transform="translate(0.000000,1024.000000) scale(0.100000,-0.100000)"
fill="#000000" stroke="none">
<path d="M1748 7050 c-153 -26 -320 -118 -422 -231 -71 -79 -140 -198 -177
-307 l-34 -97 -3 -1080 c-2 -717 0 -1111 7 -1172 37 -314 250 -558 566 -645
79 -22 92 -22 850 -26 l770 -3 61 -29 c365 -172 794 -119 1115 138 148 119
261 279 320 457 l24 70 3 1123 c2 1105 2 1124 -18 1210 -54 229 -209 429 -403
521 -34 16 -96 40 -137 53 l-75 23 -1200 1 c-660 1 -1221 -2 -1247 -6z m2543
-312 c129 -64 231 -201 259 -347 6 -33 10 -307 10 -709 l0 -654 -65 60 c-215
202 -487 296 -780 271 -270 -23 -518 -157 -690 -373 l-60 -76 -548 0 c-475 0
-552 -2 -578 -15 -37 -19 -49 -50 -49 -121 0 -48 4 -60 29 -85 l29 -29 502 0
c442 0 501 -2 496 -15 -24 -63 -38 -200 -33 -330 7 -197 54 -346 157 -497 l41
-59 -623 4 c-680 3 -655 1 -769 63 -63 35 -149 125 -184 193 -55 109 -55 111
-55 1249 0 669 4 1070 10 1112 28 177 155 328 318 381 54 17 116 18 1283 16
l1225 -2 75 -37z m-248 -1665 c124 -43 189 -85 293 -188 77 -76 98 -104 137
-185 26 -52 55 -124 64 -160 24 -89 24 -282 0 -370 -67 -247 -250 -437 -503
-522 -60 -20 -89 -23 -219 -23 -129 0 -161 3 -225 23 -202 63 -363 198 -455
382 -59 117 -70 169 -70 330 0 164 11 212 76 342 74 147 186 256 344 333 122
59 201 75 350 71 102 -3 133 -7 208 -33z"/>
<path d="M2320 6479 c-114 -22 -224 -108 -277 -216 -26 -53 -28 -67 -28 -168
0 -100 2 -115 28 -167 16 -32 48 -78 73 -104 25 -25 44 -47 42 -48 -2 -1 -24
-10 -49 -19 -103 -38 -222 -168 -268 -293 -31 -81 -39 -200 -17 -243 32 -61
35 -61 559 -61 261 0 488 3 506 6 41 8 79 48 87 91 9 50 -19 182 -55 259 -40
86 -145 193 -229 232 l-60 28 43 41 c58 54 93 118 110 199 44 210 -96 417
-313 463 -60 12 -88 13 -152 0z m177 -245 c16 -12 39 -36 51 -55 20 -29 23
-44 20 -95 -6 -105 -70 -164 -176 -164 -92 0 -154 63 -160 163 -3 53 0 67 20
97 13 19 39 45 58 58 30 20 44 23 97 20 43 -3 72 -10 90 -24z m66 -690 c46
-15 127 -90 127 -116 0 -10 -64 -13 -300 -13 -240 0 -300 3 -300 13 0 24 84
103 125 117 58 20 287 20 348 -1z"/>
<path d="M3149 6261 c-25 -26 -29 -37 -29 -86 0 -70 20 -109 61 -124 22 -7
173 -11 460 -11 l429 0 31 28 c27 24 33 37 37 84 5 65 -15 114 -54 128 -15 6
-209 10 -465 10 l-441 0 -29 -29z"/>
<path d="M3146 5854 c-23 -24 -26 -35 -26 -93 0 -79 15 -106 68 -121 55 -15
837 -12 882 3 48 16 73 66 66 129 -6 55 -21 83 -53 97 -16 7 -173 11 -467 11
l-443 0 -27 -26z"/>
<path d="M1860 4473 c-55 -20 -83 -100 -61 -174 21 -70 12 -69 424 -69 l369 0
29 29 c25 25 29 37 29 85 0 70 -14 101 -55 121 -28 13 -86 15 -377 14 -188 0
-350 -3 -358 -6z"/>
<path d="M3754 4950 c-12 -4 -31 -21 -43 -36 -20 -26 -21 -36 -21 -292 l0
-265 168 -171 c165 -168 209 -206 245 -206 42 0 88 29 103 66 30 72 18 92
-152 264 l-154 156 0 203 c0 227 -6 252 -65 277 -39 16 -51 16 -81 4z"/>
<path d="M6383 6521 c-50 -23 -73 -63 -73 -127 0 -41 5 -51 39 -85 34 -34 44
-39 85 -39 59 0 101 21 122 62 37 72 11 157 -59 189 -23 10 -49 19 -57 19 -8
0 -34 -9 -57 -19z"/>
<path d="M5250 6375 l0 -115 180 0 180 0 0 -475 0 -475 115 0 115 0 0 475 0
475 175 0 175 0 0 115 0 115 -470 0 -470 0 0 -115z"/>
<path d="M7110 6181 c-45 -14 -94 -43 -129 -75 l-33 -31 4 43 4 42 -113 0
-113 0 0 -425 0 -425 115 0 115 0 0 288 c0 267 1 289 20 319 39 65 129 88 199
51 79 -41 81 -51 81 -375 l0 -283 113 0 112 0 -3 252 c-2 162 1 269 8 298 33
134 197 170 273 60 15 -22 17 -58 17 -317 l0 -293 116 0 115 0 -3 323 c-3 307
-5 325 -26 379 -58 144 -196 207 -358 163 -69 -19 -140 -66 -163 -109 -16 -29
-31 -34 -31 -11 0 31 -86 103 -141 119 -55 17 -136 20 -179 7z"/>
<path d="M8438 6176 c-184 -53 -298 -220 -298 -438 0 -175 57 -300 176 -384
90 -64 236 -90 353 -63 119 27 231 119 269 222 l20 52 -111 3 c-84 2 -113 0
-116 -10 -9 -29 -72 -76 -115 -87 -57 -14 -127 0 -173 35 -38 29 -73 91 -73
129 l0 25 301 0 302 0 -6 103 c-11 202 -81 317 -236 390 -53 25 -78 30 -155
33 -57 2 -109 -2 -138 -10z m207 -196 c42 -20 76 -67 89 -122 l6 -28 -186 0
-186 0 7 28 c28 115 161 175 270 122z"/>
<path d="M6330 5735 l0 -425 113 0 112 0 -3 425 -2 425 -110 0 -110 0 0 -425z"/>
<path d="M8534 5041 c-2 -2 -4 -278 -4 -613 l0 -608 115 0 115 0 0 133 1 132
34 38 c20 20 37 37 38 37 2 0 52 -76 112 -170 l110 -170 132 0 132 0 -38 58
c-80 120 -281 434 -281 438 0 6 224 279 264 322 l30 32 -131 0 -131 0 -134
-159 c-73 -88 -135 -160 -138 -160 -3 -1 -5 155 -5 345 l0 345 -108 2 c-60 1
-111 0 -113 -2z"/>
<path d="M5250 4885 l0 -115 180 0 180 0 0 -475 0 -475 118 0 117 0 -3 475 -2
475 175 0 175 0 0 115 0 115 -470 0 -470 0 0 -115z"/>
<path d="M7091 4689 c-64 -11 -128 -38 -176 -74 -37 -29 -95 -133 -95 -172 0
-23 2 -23 103 -23 102 0 102 0 114 28 18 40 65 64 128 64 89 1 145 -47 145
-126 l0 -33 -83 -7 c-182 -15 -330 -60 -384 -118 -84 -89 -82 -254 3 -342 46
-48 78 -63 156 -76 127 -20 240 21 300 110 17 25 17 24 17 -37 l1 -63 105 0
105 0 0 273 c0 149 -5 304 -10 342 -17 118 -81 196 -190 234 -69 24 -169 32
-239 20z m219 -546 c-7 -69 -19 -94 -63 -127 -71 -54 -184 -54 -226 1 -37 46
-19 117 36 142 30 14 165 38 223 40 l36 1 -6 -57z"/>
<path d="M7972 4689 c-114 -19 -220 -95 -275 -198 -97 -178 -66 -442 66 -575
146 -145 407 -154 550 -17 44 41 82 110 96 170 l9 41 -103 0 -103 0 -19 -37
c-25 -51 -74 -78 -143 -78 -108 0 -173 75 -186 212 -16 176 57 293 185 293 68
0 114 -25 138 -75 l17 -35 104 0 105 0 -7 41 c-28 176 -225 294 -434 258z"/>
<path d="M6567 4666 c-55 -20 -102 -60 -126 -108 l-21 -43 0 78 0 77 -107 0
-108 0 0 -425 0 -425 113 0 112 0 0 238 c0 143 5 253 11 277 15 55 82 120 138
135 25 6 66 10 93 8 l48 -3 0 103 0 102 -57 0 c-32 -1 -75 -7 -96 -14z"/>
</g>
</svg>
